<svg width="100" height="100" viewBox="0 0 100 100" fill="none" xmlns="http://www.w3.org/2000/svg">
<rect width="100" height="100" rx="50" fill="url(#paint0_linear_406_1075)"/>
<path d="M26.0807 58.1151L28.9983 57.4169L26.0807 58.1151ZM26.0807 41.9226L28.9983 42.6208L26.0807 41.9226ZM72.9193 41.9227L70.0017 42.6208L72.9193 41.9227ZM72.9193 58.1151L70.0017 57.4169L72.9193 58.1151ZM57.7592 72.9759L57.087 70.0522L57.7592 72.9759ZM41.2408 72.9759L40.5685 75.8996L41.2408 72.9759ZM41.2408 27.0618L41.913 29.9855L41.913 29.9855L41.2408 27.0618ZM57.7593 27.0618L57.087 29.9855L57.7593 27.0618ZM28.9983 57.4169C27.8339 52.5507 27.8339 47.4871 28.9983 42.6208L23.1631 41.2245C21.779 47.0087 21.779 53.0291 23.1631 58.8133L28.9983 57.4169ZM70.0017 42.6208C71.1661 47.4871 71.1661 52.5507 70.0017 57.4169L75.8369 58.8132C77.221 53.0291 77.221 47.0087 75.8369 41.2245L70.0017 42.6208ZM57.087 70.0522C52.097 71.1996 46.9031 71.1996 41.913 70.0522L40.5685 75.8996C46.4433 77.2504 52.5567 77.2504 58.4315 75.8996L57.087 70.0522ZM41.913 29.9855C46.9031 28.8382 52.097 28.8382 57.087 29.9855L58.4315 24.1381C52.5567 22.7873 46.4433 22.7873 40.5685 24.1381L41.913 29.9855ZM41.913 70.0522C35.4757 68.572 30.4916 63.6574 28.9983 57.4169L23.1631 58.8133C25.1987 67.3202 31.9615 73.9205 40.5685 75.8996L41.913 70.0522ZM58.4315 75.8996C67.0385 73.9205 73.8013 67.3202 75.8369 58.8132L70.0017 57.4169C68.5084 63.6574 63.5243 68.572 57.087 70.0522L58.4315 75.8996ZM57.087 29.9855C63.5243 31.4657 68.5084 36.3803 70.0017 42.6208L75.8369 41.2245C73.8013 32.7175 67.0385 26.1172 58.4315 24.1381L57.087 29.9855ZM40.5685 24.1381C31.9615 26.1172 25.1987 32.7175 23.1631 41.2245L28.9983 42.6208C30.4916 36.3803 35.4757 31.4657 41.913 29.9855L40.5685 24.1381ZM58.1348 74.875C58.1348 70.8828 58.1414 68.1964 58.4164 66.1913C58.6787 64.2788 59.1335 63.4389 59.7105 62.8733L55.5103 58.5886C53.6117 60.4497 52.8287 62.7761 52.4721 65.376C52.1282 67.8834 52.1348 71.0557 52.1348 74.875H58.1348ZM72.0392 55.3042C68.138 55.3042 64.9162 55.2981 62.3729 55.6333C59.7493 55.9791 57.4006 56.7357 55.5103 58.5886L59.7105 62.8733C60.2958 62.2996 61.1771 61.8428 63.1569 61.5819C65.2169 61.3104 67.9717 61.3042 72.0392 61.3042V55.3042Z" fill="white"/>
<path d="M41.375 42.375H49.5M41.375 50.5H54.9167" stroke="white" stroke-width="6" stroke-linecap="round"/>
<defs>
<linearGradient id="paint0_linear_406_1075" x1="34" y1="6" x2="116.5" y2="107" gradientUnits="userSpaceOnUse">
<stop stop-color="#FFA1F6"/>
<stop offset="1" stop-color="#F95A00"/>
</linearGradient>
</defs>
</svg>
